<?xml version="1.0" encoding="utf-8"?>
<!-- Generator: Adobe Illustrator 24.0.3, SVG Export Plug-In . SVG Version: 6.00 Build 0)  -->
<svg version="1.1" id="Layer_1" xmlns="http://www.w3.org/2000/svg" xmlns:xlink="http://www.w3.org/1999/xlink" x="0px" y="0px"
	 viewBox="0 0 1296 1728" style="enable-background:new 0 0 1296 1728;" xml:space="preserve">
<style type="text/css">
	.st0{fill:#003F3D;}
</style>
<g>
	<g>
		<path class="st0" d="M1310.47,578.66c-42.06,1.95-85.69,3.86-126.34-9.13c-19.87-6.35-37.97-16.69-53.67-30.4
			c-16.11-14.07-29.83-30.65-42.8-47.58c-50.24-65.63-91.26-137.92-144-201.69c-26.26-31.75-55.63-62.03-89.71-85.45
			c-32.39-22.25-70.13-35.8-109.65-29.27c-33.6,5.55-65.41,24.74-84.14,53.44c-18.23,27.94-20.94,63.68-9.44,94.76
			c11.35,30.69,36.73,57.78,69.98,63.65c17.36,3.07,37.36,0.49,50.17-12.76c10.49-10.85,14.05-28.41,8.52-42.47
			c-2.74-6.96-7.57-12.69-14.24-16.17c-6.84-3.57-12.91,6.79-6.06,10.36c12.1,6.31,13.37,22.69,7.49,33.84
			c-7.77,14.75-26.83,18.19-41.96,15.75c-30.78-4.97-54.14-30.34-63.61-59.05c-9.75-29.55-5.73-61.79,13.04-86.91
			c19.24-25.75,51.07-41.63,82.88-43.98c38.1-2.82,73.16,14.95,102.61,37.62c30.8,23.71,57.61,52.57,81.91,82.79
			c49.12,61.08,88.26,129.38,135.86,191.58c23.71,30.98,50.1,61.16,86.63,77.05c36.65,15.95,77.26,18.06,116.7,17.13
			c9.95-0.24,19.89-0.67,29.84-1.13C1318.16,590.3,1318.2,578.3,1310.47,578.66L1310.47,578.66z"/>
	</g>
</g>
<g>
	<g>
		<path class="st0" d="M708.88,186.52c-37.74,5.09-71.67,27.1-94.86,56.87c-25.49,32.71-42.18,79.2-28.13,120.09
			c13.48,39.23,50.83,69.89,90.88,78.91c38.1,8.58,80.52-3.63,105.21-34.78c14.2-17.92,23.08-43.19,14.83-65.64
			c-7.24-19.7-27.61-33.62-48.77-29.26c-7.56,1.56-4.36,13.13,3.19,11.57c16.21-3.34,31.27,9.86,35.27,24.85
			c4.75,17.81-2.7,37.31-13.94,51.15c-21.99,27.07-58.99,38.11-92.6,30.52c-35.05-7.91-68.85-33.98-81.65-68.17
			c-13.54-36.15,0.03-77.13,21.59-107.24c21.73-30.35,54.94-52.3,92.17-57.32c3.24-0.44,4.94-4.55,4.19-7.38
			C715.34,187.23,712.07,186.08,708.88,186.52L708.88,186.52z"/>
	</g>
</g>
<g>
	<g>
		<path class="st0" d="M763.59,315.33c-4.33-1.27-8.81-1.97-13.32-2.17c-3.24-0.14-6,2.86-6,6c0,3.37,2.75,5.86,6,6
			c3.47,0.15,6.79,0.76,10.13,1.74C767.82,329.08,770.99,317.51,763.59,315.33L763.59,315.33z"/>
	</g>
</g>
<g>
	<g>
		<path class="st0" d="M1306.34,656.23c-30.59,1.28-62.03,2.68-91.79-5.87c-26.01-7.47-48.18-23.23-66.73-42.61
			c-18.34-19.16-33.23-41.24-47.29-63.64c-17.17-27.35-33.67-55.12-49.65-83.17c-18.26-32.05-35.77-64.53-52.54-97.38
			c-3.51-6.88-13.87-0.81-10.36,6.06c30.63,59.99,63.73,118.72,99.3,175.93c28.3,45.51,61.59,93.47,113.84,113.02
			c33.47,12.52,70.12,11.15,105.22,9.68C1314.04,667.9,1314.08,655.9,1306.34,656.23L1306.34,656.23z"/>
	</g>
</g>
<g>
	<g>
		<path class="st0" d="M1321.45,413.83c-53.06,5.15-102.34-20.6-142.11-53.5c-40.42-33.42-75.53-73.11-112.4-110.27
			c-18.96-19.11-38.27-37.91-58.5-55.69c-19.58-17.2-39.98-34.83-62.95-47.37c-23.74-12.95-49.92-17.45-76.75-17.08
			c-24.87,0.34-49.84,3.6-74.09,9.07c-54.38,12.26-105.54,36.72-149.49,70.94c-6.09,4.74,2.46,13.18,8.49,8.49
			c38.92-30.3,84.14-52.37,131.83-64.84c23.62-6.18,47.8-10.03,72.19-11.28c26.39-1.36,53.11,0.62,77.09,12.62
			c23.03,11.52,43.14,28.72,62.45,45.53c19.85,17.28,38.79,35.56,57.37,54.19c37.04,37.14,72.16,76.81,112.23,110.78
			c42.93,36.41,96.53,66.06,154.66,60.41C1329.06,425.1,1329.14,413.09,1321.45,413.83L1321.45,413.83z"/>
	</g>
</g>
<g>
	<g>
		<path class="st0" d="M1118.79,579.03c-97.62,40.61-203.39,58.32-308.88,50.32c-107.64-8.16-213.88-37.82-322.5-29.83
			c-49.07,3.61-101.16,14.12-143.17,40.99c-35.41,22.65-58.99,57.93-65.74,99.49c-6.45,39.7,1.13,81.79,21.99,116.3
			c21.07,34.84,54.79,60.78,92.65,75.06c37.91,14.31,83.81,17.64,122.12,2.73c10.22-3.98,20.13-9.51,27.44-17.87
			c7.59-8.67,12.18-19.48,13.96-30.81c3.3-21.05-2.23-43.09-14.66-60.36c-6.18-8.59-13.74-15.82-22.61-21.59
			c-1.54,3.66-3.08,7.31-4.62,10.97c17.34,5.74,20.72,28.37,15.29,43.54c-7.67,21.4-32.5,32.32-52.36,39
			c-26.46,8.9-55.49,15.66-83.47,11.02c-21.5-3.56-40.58-14.22-55.45-30.08c-29.12-31.07-39.47-76.77-28.57-117.61
			c11.88-44.52,44.72-81.34,83.53-104.91c51.9-31.53,113.91-40.71,173.59-43.36c7.69-0.34,7.73-12.34,0-12
			c-58.96,2.62-119.53,11.54-171.86,40.48c-43.69,24.17-81.12,63.83-95.62,112.33c-13.5,45.17-3.2,95.59,28.19,131.07
			c15.53,17.55,36.32,30.31,59.38,34.98c30.55,6.19,62.12-0.11,91.3-9.63c23.06-7.53,49.19-19.22,60.47-42.27
			c8.7-17.78,7.19-42.99-8.27-56.78c-3.8-3.39-8.12-5.76-12.95-7.36c-6.69-2.22-10.12,7.39-4.62,10.97
			c16.99,11.06,28.52,29.39,31.61,49.39c3.39,21.91-4.35,44.11-24.23,55.22c-17.19,9.61-38.62,12.71-58.07,13.06
			c-19.26,0.35-38.39-2.58-56.75-8.38c-36.72-11.61-70.26-35.23-91.65-67.49c-20.92-31.56-29.67-70.96-24.77-108.46
			c5.14-39.37,26.11-73.63,59.42-95.38c39.93-26.07,89.76-36.48,136.66-40.12c102.95-7.99,204,18.2,305.83,28.09
			c100.17,9.73,201-2,295.91-35.75c11.68-4.15,23.23-8.63,34.67-13.39C1129.01,587.68,1125.93,576.07,1118.79,579.03L1118.79,579.03
			z"/>
	</g>
</g>
<g>
	<g>
		<path class="st0" d="M1304.52,690.23c-64.25,20.25-131.11,33.38-198.66,33.25c-60.8-0.12-122.01-11.32-177.6-36.44
			c-30.43-13.75-59.03-31.5-84.33-53.33c-5.82-5.02-14.34,3.43-8.49,8.49c46.02,39.72,101.99,66.42,160.94,80.59
			c64.6,15.53,131.79,15.73,197.28,5.92c38.69-5.8,76.76-15.15,114.05-26.9C1315.05,699.49,1311.91,687.9,1304.52,690.23
			L1304.52,690.23z"/>
	</g>
</g>
<g>
	<g>
		<path class="st0" d="M306.76,816.59c10.65-19.66,28.31-33.49,47.69-43.99c21.24-11.51,44.4-19.64,67.43-26.73
			c49.32-15.19,100.54-23.33,151.99-26.49c52.04-3.2,104.29-1.49,156.21,2.84c52.32,4.36,104.14,12.2,156.21,18.72
			c59.37,7.43,120.58,11.29,178.7-5.93c7.39-2.19,4.24-13.77-3.19-11.57c-52.46,15.54-107.66,13.31-161.43,7.19
			c-53.19-6.06-106.02-14.62-159.37-19.45c-103.98-9.41-210.89-8.95-311.97,20.06c-26.56,7.62-53.32,16.72-77.87,29.55
			c-22.16,11.58-42.66,27.44-54.75,49.76C292.72,817.32,303.07,823.39,306.76,816.59L306.76,816.59z"/>
	</g>
</g>
<g>
	<g>
		<path class="st0" d="M841.5,633.01c-27.64,15.53-56.52,27.99-86.32,38.72c-28.81,10.37-57.97,20.28-84.62,35.6
			c-6.69,3.85-0.66,14.22,6.06,10.36c26.82-15.43,56.2-25.13,85.16-35.62c29.59-10.72,58.32-23.27,85.78-38.7
			C854.29,639.59,848.25,629.22,841.5,633.01L841.5,633.01z"/>
	</g>
</g>
<g>
	<g>
		<path class="st0" d="M472.95,731.63c28.88-34.43,73.37-49.9,116.76-55.55c54.42-7.09,109.63-0.89,164-8.89
			c29.49-4.34,58.32-12.46,85.82-23.95c3.01-1.26,5.09-3.96,4.19-7.38c-0.75-2.83-4.39-5.44-7.38-4.19
			c-24.95,10.42-50.98,18.08-77.64,22.65c-27.76,4.75-55.95,5.49-84.05,5.84c-50.45,0.64-102.26,0.65-149.67,20.27
			c-23.11,9.56-44.36,23.45-60.52,42.72C459.53,729.02,467.98,737.55,472.95,731.63L472.95,731.63z"/>
	</g>
</g>
<g>
	<g>
		<path class="st0" d="M507.45,808c-5.73,14.39-24.15,15.92-37.34,15.38c-12.49-0.51-26.76-2.61-36.29-11.46
			c-9.14-8.49-11.1-21.38-8.2-33.12c3.14-12.68,11.15-22.98,21.81-30.36c13.35-9.25,28.97-14.17,44.51-18.31
			c7.45-1.99,4.29-13.57-3.19-11.57c-31.33,8.36-67.35,23.1-75.02,58.44c-3.25,14.97-0.54,31.22,10.54,42.39
			c11.67,11.76,28.97,15.21,44.92,15.97c19.85,0.94,41.74-3.83,49.84-24.16C521.88,804.01,510.28,800.9,507.45,808L507.45,808z"/>
	</g>
</g>
<g>
	<g>
		<path class="st0" d="M1005.95,378.19c-2.97-60.44-6.24-122.78-28.23-179.85c-6.21-16.11-13.83-31.61-23.12-46.17
			c-4.14-6.49-14.53-0.48-10.36,6.06c32.16,50.38,42.15,110.37,46.68,168.98c1.31,16.98,2.2,33.98,3.03,50.98
			C994.33,385.87,1006.33,385.92,1005.95,378.19L1005.95,378.19z"/>
	</g>
</g>
<g>
	<g>
		<path class="st0" d="M1249.05,714.73c-62.78,68.15-127.85,135.18-202.23,190.83c-36.69,27.45-75.59,52.06-116.83,72.11
			c-44.76,21.77-92.17,37.08-139.84,51.06c-48.35,14.17-97.14,27.13-144.43,44.65c-39.19,14.52-80.12,32.61-107.74,65.21
			c-25.81,30.47-34.26,70.13-25.23,108.84c8.98,38.47,34.23,72.99,69.35,91.49c35.45,18.66,80.59,22.48,116.02,1.64
			c17.55-10.32,32.8-27.59,35.61-48.33c2.58-18.99-7.74-38.04-25.47-45.78c-8.14-3.55-17.23-4.24-25.57-0.92
			c-6.99,2.78-4.35,13.94,3.19,11.57c23.75-7.45,49.77,4.98,63.07,25.2c15.25,23.2,11.97,53.84-0.78,77.36
			c-13.88,25.61-38.9,43.17-65.52,53.74c-26.78,10.63-56,16.1-84.84,14.49c-28.59-1.6-56.87-11.18-78.26-30.67
			c-20.6-18.77-34.07-44.08-42.46-70.39c-9.44-29.61-13.81-61.57-9.97-92.53c3.65-29.4,16.04-56.63,35.61-78.83
			c41.15-46.67,101.88-66.66,160.32-81.7c7.99-2.05,15.99-4.04,24-6.03c7.49-1.86,4.32-13.43-3.19-11.57
			c-64.47,15.99-132.46,33.66-181.14,81.84c-22.38,22.15-38.62,49.78-45.09,80.73c-7,33.49-3.94,68.68,5,101.51
			c7.86,28.88,21.06,57.11,41.84,79c21.78,22.95,50.97,35.78,82.11,39.63c30.96,3.83,63.14-0.93,92.42-11.34
			c29.26-10.4,57.15-27.52,74.66-53.76c16.6-24.88,23.28-58.18,11.48-86.42c-10.4-24.89-35.69-43.5-62.87-44.53
			c-6.61-0.25-13.29,0.71-19.59,2.69c1.06,3.86,2.13,7.71,3.19,11.57c16.16-6.44,33.34,7.76,36.02,23.73
			c3.23,19.26-11.49,37.54-26.63,47.38c-32.86,21.37-76.6,17.38-109.77-1.1c-32.48-18.1-54.79-50.78-62.08-87.02
			c-7.45-37.07,3.55-73.87,30.11-100.74c29.09-29.42,69.28-45.3,107.57-58.82c44.93-15.86,91.01-28.07,136.68-41.55
			c45-13.27,89.67-27.95,132.16-48.03c39.42-18.63,76.75-41.47,112.05-67.03c71.03-51.43,133.76-113.2,193.57-177.05
			c7.36-7.86,14.68-15.75,21.98-23.67C1262.76,717.55,1254.3,709.04,1249.05,714.73L1249.05,714.73z"/>
	</g>
</g>
<g>
	<g>
		<path class="st0" d="M914.42,995.58c63.23,18.41,129.76,25.1,195.42,20.32c65.47-4.77,129.9-20.68,190-47.09
			c33.86-14.88,66.15-33.18,96.27-54.64c6.24-4.44,0.25-14.85-6.06-10.36c-52.63,37.49-111.82,65.12-174.17,82
			c-62.05,16.79-126.87,22.92-190.97,17.88c-36.34-2.86-72.3-9.48-107.3-19.68C910.18,981.84,907.01,993.42,914.42,995.58
			L914.42,995.58z"/>
	</g>
</g>
<g>
	<g>
		<path class="st0" d="M565.97,1315.77c-18.87-52.66,23.18-104.33,59.18-137.93c40.84-38.12,89.91-66.47,143.06-83.55
			c56.78-18.25,116.33-24.95,175.35-31.53c62.93-7.01,125.75-14.91,188.42-23.95c70.95-10.23,141.7-21.85,212.21-34.81
			c7.58-1.39,4.37-12.96-3.19-11.57c-128.71,23.66-258.23,42.77-388.29,57.31c-60.68,6.79-122.04,12.97-180.7,30.8
			c-54.55,16.57-105.07,44.16-147.82,81.98c-41.96,37.14-91.37,96.19-69.78,156.44C556.98,1326.18,568.58,1323.06,565.97,1315.77
			L565.97,1315.77z"/>
	</g>
</g>
<g>
	<g>
		<path class="st0" d="M994.35,1015.68c57.21-6.47,112.49-25.45,162-54.8c49.45-29.31,92.85-68.6,126.77-115.01
			c19.06-26.08,34.75-54.39,46.96-84.28c2.92-7.14-8.69-10.26-11.57-3.19c-20.95,51.3-53.51,97.53-93.6,135.67
			c-40.08,38.14-87.93,68.43-139.83,87.72c-29.23,10.86-59.74,18.38-90.73,21.89C986.76,1004.54,986.67,1016.55,994.35,1015.68
			L994.35,1015.68z"/>
	</g>
</g>
<g>
	<g>
		<path class="st0" d="M680.07,1067.71c22.2,3.88,44.37,8.03,66.64,11.48c22.22,3.44,44.67,5.73,67.12,3.4c7.61-0.79,7.69-12.8,0-12
			c-22.03,2.28-44.08,0.17-65.88-3.28c-21.61-3.42-43.14-7.42-64.69-11.18C675.71,1054.82,672.46,1066.38,680.07,1067.71
			L680.07,1067.71z"/>
	</g>
</g>
<g>
	<g>
		<path class="st0" d="M679.62,1255.2c6.99,20.48,14.39,44.17-0.1,63.24c-11.15,14.68-29.72,22.56-46.19,29.57
			c-7.08,3.02-0.98,13.36,6.06,10.36c19.04-8.11,39.03-17.56,51.29-34.98c15.32-21.77,8.4-48.24,0.51-71.38
			C688.71,1244.74,677.12,1247.86,679.62,1255.2L679.62,1255.2z"/>
	</g>
</g>
</svg>
